Coordinates
version=1
nRows=10
nColumns=34
inDegrees=yes

Units are S.I. units (second, meters, Newtons, ...)
If the header above contains a line with 'inDegrees', this indicates whether rotational values are in degrees (yes) or radians (no).

endheader
time	pelvis_tilt	pelvis_list	pelvis_rotation	pelvis_tx	pelvis_ty	pelvis_tz	hip_flexion_r	hip_adduction_r	hip_rotation_r	knee_angle_r	ankle_angle_r	subtalar_angle_r	mtp_angle_r	hip_flexion_l	hip_adduction_l	hip_rotation_l	knee_angle_l	ankle_angle_l	subtalar_angle_l	mtp_angle_l	lumbar_extension	lumbar_bending	lumbar_rotation	arm_flex_r	arm_add_r	arm_rot_r	elbow_flex_r	pro_sup_r	arm_flex_l	arm_add_l	arm_rot_l	elbow_flex_l	pro_sup_l
      8.85000000	    -17.31688343	      1.27589434	    -10.83093642	      0.70554723	      0.79901184	     -0.07812317	     37.42192661	      4.33770162	     -0.85966751	     43.52986302	     10.82865674	    -12.61320115	      0.00000000	     38.90797262	     -2.50290024	     -2.81870715	     51.50562679	      5.42472520	    -24.48871096	      0.00000000	     -7.20787645	     -3.80675668	     -2.97256534	     63.11983025	    -51.00367792	     22.70050879	    115.52402319	     86.78233425	     96.34291041	    -47.54030675	     56.50695390	    112.39759880	     87.22746199
      8.86666670	    -16.74689698	      2.28638213	    -11.35797585	      0.71989775	      0.83056318	     -0.07747898	     32.13497717	      2.78044297	     -1.36263651	     35.82922498	      5.83300195	     -9.54512781	      0.00000000	     33.57409361	     -1.94868107	     -5.12544969	     43.32505305	      0.74179745	    -20.69643797	      0.00000000	     -3.57615172	     -4.67194807	     -4.62414279	     72.18789418	    -51.96734909	     37.80967687	    113.84100391	     84.26120813	    100.25166831	    -50.84711680	     65.26264566	    118.58754791	     84.78647913
      8.88333330	    -16.90685240	      2.97057879	    -11.10437169	      0.72954522	      0.85812087	     -0.07563025	     27.66539445	      1.22106649	     -3.56004210	     27.91967242	      0.25948450	     -3.96512585	      0.00000000	     28.77261632	     -1.53506576	     -7.25543462	     34.25199130	     -5.20355732	    -15.40486958	      0.00000000	      0.19017785	     -5.17468238	     -4.90705264	     71.37395722	    -58.60891708	     44.07534722	    119.39061243	     83.84266473	    100.69984843	    -51.99600816	     70.03465878	    124.18452554	     84.13042322
      8.90000000	    -17.14396147	      3.51037947	    -11.23803772	      0.74402455	      0.88277152	     -0.07586320	     23.55776308	     -0.12579361	     -6.38626863	     20.29402860	     -7.87063434	      2.19833048	      0.00000000	     23.96109100	     -1.45848267	    -10.18609554	     25.04905871	    -12.23332731	     -9.27075822	      0.00000000	      4.11259959	     -5.72464972	     -3.88442374	     71.62807140	    -63.85065652	     52.18292639	    123.29004917	     81.74503914	     99.23455663	    -52.15697705	     75.18415227	    128.32994967	     82.03916652
      8.91666670	    -17.56799000	      4.32899093	    -11.27053810	      0.75616785	      0.91546752	     -0.07561723	     20.07760032	     -1.59922057	    -10.36565118	     11.86690603	    -18.32474129	      9.62809566	      0.00000000	     19.67698221	     -0.84559483	    -13.12039441	     15.47409201	    -23.13427257	     -3.50856443	      0.00000000	      7.82755738	     -6.12759671	     -3.03178612	     68.65237436	    -66.42055636	     57.92067143	    126.70714732	     78.49997400	     91.10406859	    -53.77825996	     75.03260321	    132.68016230	     79.03532843
      8.93333330	    -17.85780320	      4.98738111	    -11.93287468	      0.76247248	      0.94858557	     -0.07262938	     17.53823474	     -2.44713355	    -14.00737170	      5.31749568	    -31.71209599	     13.72471788	      0.00000000	     16.19813435	     -0.48483670	    -15.72236565	      6.88643487	    -36.19180040	      1.11429566	      0.00000000	     10.89320925	     -6.10746167	     -2.35398028	     61.71497551	    -64.55749981	     60.79826229	    126.67364102	     75.96629214	     79.56444814	    -56.20282922	     73.77908245	    133.86148572	     77.32556172
      8.95000000	    -17.82810256	      5.02958509	    -12.20864207	      0.76854216	      0.97455211	     -0.06489095	     15.30625600	     -2.86371241	    -19.41175123	      1.20574915	    -39.94981993	     13.33753244	      0.00000000	     13.13423108	     -0.88708907	    -19.35908981	      1.01072424	    -43.53814790	      2.81484860	      0.00000000	     13.03468796	     -5.95078264	     -2.56161641	     52.33045966	    -62.89100540	     60.65243156	    125.34209731	     74.16728949	     65.64521317	    -57.94855444	     69.23423798	    133.10420254	     76.54518538
      8.96666670	    -18.14948674	      4.65079599	    -11.35025866	      0.77704201	      0.99999621	     -0.06911164	     13.86108693	     -2.92231349	    -24.38310026	      0.25893487	    -43.81823863	     10.66350513	      0.00000000	     12.26720088	     -1.24407512	    -21.95709340	      0.00000000	    -47.73206813	      1.34866561	      0.00000000	     13.43179193	     -5.07986293	     -2.82701848	     36.80235388	    -63.39625414	     54.10814657	    127.27204652	     72.72954594	     47.22534446	    -57.73014941	     57.28251482	    133.49890093	     77.13322896
      8.98333330	    -17.61528915	      3.89070749	    -11.37582359	      0.78054094	      1.03878748	     -0.06897749	     12.19332143	     -2.41555409	    -25.06823076	      1.61812692	    -45.80948378	      9.32524218	      0.00000000	     10.23970582	     -1.41890568	    -22.25046194	      0.00000000	    -50.00000000	      2.09748866	      0.00000000	     12.39616203	     -3.84187610	     -2.33444814	     19.87370116	    -60.66563664	     45.07711587	    125.59662686	     73.19728175	     29.64162632	    -53.96793598	     45.74826055	    131.00559926	     78.86887117
      9.00000000	    -16.72172135	      2.72623408	    -10.35949381	      0.78307984	      1.07009950	     -0.06684979	     10.43530364	     -1.30399054	    -24.09255095	      3.60641752	    -49.12627937	      7.69013670	      0.00000000	      9.45852199	     -2.10338943	    -20.61966513	      2.67851565	    -50.00000000	      4.73731379	      0.00000000	     10.30762631	     -2.66513877	     -2.25113063	      5.04698630	    -55.21526818	     35.81816046	    121.47564957	     75.61943474	     17.81980907	    -48.48706357	     37.26141303	    126.52136975	     81.65780337
